<svg xml:space="preserve" width="200" height="200" version="1.1" style="clip-rule:evenodd;fill-rule:evenodd;image-rendering:optimizeQuality;shape-rendering:geometricPrecision;text-rendering:geometricPrecision" viewBox="0 0 5291.458 5290.504" id="svg1087" xmlns="http://www.w3.org/2000/svg"><defs id="defs1034"><linearGradient id="id17" gradientUnits="userSpaceOnUse" x1="14008.79" y1="9887.31" x2="16422.68" y2="5557.55"><stop offset="0" style="stop-opacity:1;stop-color:#a4b821" id="stop1029"/><stop offset="1" style="stop-opacity:1;stop-color:#efe901" id="stop1031"/></linearGradient><linearGradient id="id13" gradientUnits="userSpaceOnUse" x1="13196.84" y1="10578.47" x2="10827.59" y2="9121.91"><stop offset="0" style="stop-opacity:1;stop-color:#ab0000" id="stop1009"/><stop offset="1" style="stop-opacity:1;stop-color:#fa2a2a" id="stop1011"/></linearGradient><linearGradient id="id14" gradientUnits="userSpaceOnUse" x1="20377" y1="7572.59" x2="18524.971" y2="10503.03"><stop offset="0" style="stop-opacity:1;stop-color:#c9dd00" id="stop1014"/><stop offset="1" style="stop-opacity:1;stop-color:#007d1c" id="stop1016"/></linearGradient><linearGradient id="id15" gradientUnits="userSpaceOnUse" x1="13196.84" y1="10250.26" x2="11508.91" y2="5936.66"><stop offset="0" style="stop-opacity:1;stop-color:#e54b15" id="stop1019"/><stop offset="1" style="stop-opacity:1;stop-color:#fed700" id="stop1021"/></linearGradient><linearGradient id="id16" gradientUnits="userSpaceOnUse" x1="13431.25" y1="6733.74" x2="13237.24" y2="11233.48"><stop offset="0" style="stop-opacity:1;stop-color:#fedc00" id="stop1024"/><stop offset="1" style="stop-opacity:1;stop-color:#e74009" id="stop1026"/></linearGradient><linearGradient id="id12" gradientUnits="userSpaceOnUse" x1="14288.91" y1="10534.23" x2="18699" y2="9809.32"><stop offset="0" style="stop-opacity:1;stop-color:#043f79" id="stop1004"/><stop offset="1" style="stop-opacity:1;stop-color:#01acc6" id="stop1006"/></linearGradient><mask id="id0"><linearGradient id="id1" gradientUnits="userSpaceOnUse" x1="17876.949" y1="9439.31" x2="17513.57" y2="10365.33"><stop offset="0" style="stop-opacity:1;stop-color:white" id="stop956"/><stop offset="1" style="stop-opacity:0;stop-color:white" id="stop958"/></linearGradient><path style="fill:url(#id1)" id="rect961" d="M14081.79 9638.77h4716.02v1285.3h-4716.02z"/></mask><mask id="id10"><linearGradient id="id11" gradientUnits="userSpaceOnUse" x1="11318.87" y1="8870.8" x2="11799.46" y2="9873.01"><stop offset="0" style="stop-opacity:1;stop-color:white" id="stop996"/><stop offset="1" style="stop-opacity:0;stop-color:white" id="stop998"/></linearGradient><path style="fill:url(#id11)" id="rect1001" d="M10802.44 9063.55H12907v1860.52h-2104.56z"/></mask><mask id="id2"><linearGradient id="id3" gradientUnits="userSpaceOnUse" x1="19467.449" y1="5582.75" x2="19371.561" y2="7965.31"><stop offset="0" style="stop-opacity:1;stop-color:white" id="stop964"/><stop offset="1" style="stop-opacity:0;stop-color:white" id="stop966"/></linearGradient><path style="fill:url(#id3)" id="rect969" d="M13937.86 5790.44h8217.42v4997.69h-8217.42z"/></mask><mask id="id4"><linearGradient id="id5" gradientUnits="userSpaceOnUse" x1="15954.64" y1="4563.08" x2="15954.64" y2="6409.25"><stop offset="0" style="stop-opacity:1;stop-color:white" id="stop972"/><stop offset="1" style="stop-opacity:0;stop-color:white" id="stop974"/></linearGradient><path style="fill:url(#id5)" id="rect977" d="M13547.94 5003.02h3266.87v5493.87h-3266.87z"/></mask><mask id="id6"><linearGradient id="id7" gradientUnits="userSpaceOnUse" x1="13613.45" y1="5500.82" x2="13613.45" y2="7203.37"><stop offset="0" style="stop-opacity:1;stop-color:white" id="stop980"/><stop offset="1" style="stop-opacity:0;stop-color:white" id="stop982"/></linearGradient><path style="fill:url(#id7)" id="rect985" d="M12660.07 5964.73h1441.73v4477.9h-1441.73z"/></mask><mask id="id8"><linearGradient id="id9" gradientUnits="userSpaceOnUse" x1="11130.36" y1="7411.44" x2="11824.23" y2="8465.92"><stop offset="0" style="stop-opacity:1;stop-color:white" id="stop988"/><stop offset="1" style="stop-opacity:0;stop-color:white" id="stop990"/></linearGradient><path style="fill:url(#id9)" id="rect993" d="M10981.6 7253.83h1857.58v3221.03H10981.6z"/></mask><style type="text/css" id="style954">.fil2{fill:#fefefe}</style></defs><g id="layer1" style="display:inline" transform="matrix(.43352 0 0 .52741 -4561.306 -1598.891)"><path d="M13279.23 11245.68s1267.76-541.79 2633.03-541.79c651.64 0 1085.63 233.71 1659.04 326.29 1796.67 290.11 2143.4-1313.5 227.44-1470.25-1717.84-140.55-3207.14 632.27-4519.51 1685.75z" id="path1061" style="clip-rule:evenodd;display:inline;fill:url(#id12);fill-rule:evenodd;image-rendering:optimizeQuality;shape-rendering:geometricPrecision;text-rendering:geometricPrecision"/><path d="M13237.24 11233.48c1249.08-2263.04 3750.02-5752.91 6609.92-5659.08 3986.62 130.79 3288.73 4500.82-206.11 3864.47-3524.34-641.71-5176.66 793.7-6403.81 1794.61z" id="path1065" style="clip-rule:evenodd;display:inline;fill:url(#id14);fill-rule:evenodd;image-rendering:optimizeQuality;shape-rendering:geometricPrecision;text-rendering:geometricPrecision"/><path d="M13217.82 11202.36c541.77-1825.78 904.13-3583.18 1770.97-5430.62 866.83-1847.45 3003.36-614.82 1443.06 1010.51-1560.3 1625.33-1610.37 1697.68-3214.03 4420.11z" id="path1069" style="clip-rule:evenodd;display:inline;fill:url(#id17);fill-rule:evenodd;image-rendering:optimizeQuality;shape-rendering:geometricPrecision;text-rendering:geometricPrecision"/><path d="M13195.28 11178.05c-242.72-977.87-881.57-3759.95-624.56-4631.48 356.05-1207.39 1950.54-1127.72 1640.56 492.99-446.58 2334.95-1016 4138.49-1016 4138.49z" id="path1073" style="clip-rule:evenodd;display:inline;fill:url(#id16);fill-rule:evenodd;image-rendering:optimizeQuality;shape-rendering:geometricPrecision;text-rendering:geometricPrecision"/><path d="M13135.64 11072.56s-457.8-1143.17-934.57-1698.48c-476.76-555.31-847.88-720.57-1124.18-1078.14-612.21-780.16 363-1744.53 1137.74-660.97 346.24 516.45 458.17 1609.07 561.12 1999.15 102.94 390.08 359.89 1438.44 359.89 1438.44z" id="path1077" style="clip-rule:evenodd;display:inline;fill:url(#id15);fill-rule:evenodd;image-rendering:optimizeQuality;shape-rendering:geometricPrecision;text-rendering:geometricPrecision"/><path d="M13113.98 11102.35s-398.2-660.96-991.45-815.37c-593.25-154.41-750.39-73.13-1191.92-349.44-608.9-555.62 43.44-1300.43 747.83-823.78 523.68 354.24 1167.76 1400.66 1435.54 1988.59z" id="path1081" style="clip-rule:evenodd;display:inline;fill:url(#id13);fill-rule:evenodd;image-rendering:optimizeQuality;shape-rendering:geometricPrecision;text-rendering:geometricPrecision"/><path class="fil2" d="M14091.79 10787.02s1045.07-361.52 2137.4-284.04c521.37 36.98 855.33 248.59 1308.85 355.21 1421.02 334.08 1789.45-929.26 265.41-1163.42-1366.44-209.94-2601.86 323.86-3711.66 1092.25z" mask="url(#id0)" id="path1063" style="clip-rule:evenodd;display:inline;fill-rule:evenodd;image-rendering:optimizeQuality;shape-rendering:geometricPrecision;text-rendering:geometricPrecision"/><path class="fil2" d="M13947.86 10778.13c1098.32-1989.9 3297.42-5058.56 5812.14-4976.06 3505.46 115.01 2891.8 3957.6-181.23 3398.06-3098.98-564.27-4551.87 697.9-5630.91 1578z" mask="url(#id2)" id="path1067" style="clip-rule:evenodd;display:inline;fill-rule:evenodd;image-rendering:optimizeQuality;shape-rendering:geometricPrecision;text-rendering:geometricPrecision"/><path class="fil2" d="M13557.94 10486.89c466.74-1572.9 778.91-3086.9 1525.68-4678.48 746.78-1591.57 2587.4-529.66 1243.21 870.56-1344.2 1400.22-1387.34 1462.55-2768.89 3807.92z" mask="url(#id4)" id="path1071" style="clip-rule:evenodd;display:inline;fill-rule:evenodd;image-rendering:optimizeQuality;shape-rendering:geometricPrecision;text-rendering:geometricPrecision"/><path class="fil2" d="M13229.25 10432.63c-198.3-798.92-720.24-3071.88-510.26-3783.92 290.89-986.43 1593.59-921.35 1340.34 402.77-364.86 1907.66-830.08 3381.15-830.08 3381.15z" mask="url(#id6)" id="path1075" style="clip-rule:evenodd;display:inline;fill-rule:evenodd;image-rendering:optimizeQuality;shape-rendering:geometricPrecision;text-rendering:geometricPrecision"/><path class="fil2" d="M12829.18 10464.86s-373.66-933.06-762.8-1386.31c-389.14-453.25-692.05-588.14-917.57-879.99-499.69-636.77 296.28-1423.89 928.63-539.49 282.61 421.54 373.97 1313.34 457.99 1631.73 84.03 318.38 293.75 1174.06 293.75 1174.06z" mask="url(#id8)" id="path1079" style="clip-rule:evenodd;display:inline;fill-rule:evenodd;image-rendering:optimizeQuality;shape-rendering:geometricPrecision;text-rendering:geometricPrecision"/><path class="fil2" d="M12897 10914.07s-342.34-568.22-852.35-700.97c-510.02-132.75-645.11-62.88-1024.69-300.42-523.47-477.66 37.35-1117.98 642.91-708.19 450.2 304.54 1003.91 1204.14 1234.13 1709.58z" mask="url(#id10)" id="path1083" style="clip-rule:evenodd;display:inline;fill-rule:evenodd;image-rendering:optimizeQuality;shape-rendering:geometricPrecision;text-rendering:geometricPrecision"/></g></svg>